<svg xmlns="http://www.w3.org/2000/svg" viewBox="0 0 720 320" font-family="'Pretendard', -apple-system, 'Noto Sans KR', sans-serif" role="img" aria-label="강결합과 인터페이스 디커플링 비교">
  <rect x="0" y="0" width="720" height="320" fill="#0d0d0d"/>

  <text x="24" y="32" fill="#f44336" font-size="13" font-weight="bold">강결합 — 구현에 직접 의존</text>
  <rect x="40" y="48" width="150" height="44" fill="rgba(244,67,54,0.10)" stroke="#f44336" stroke-width="1.5"/>
  <text x="115" y="75" fill="#e8e4df" font-size="11" text-anchor="middle">DeliveryDetailsPrinter</text>
  <line x1="190" y1="70" x2="300" y2="70" stroke="#f44336" stroke-width="1.5" marker-end="url(#arC)"/>
  <text x="245" y="62" fill="rgb(138,133,128)" font-size="10" text-anchor="middle">Uses</text>
  <rect x="300" y="48" width="150" height="44" fill="rgba(244,67,54,0.10)" stroke="#f44336" stroke-width="1.5"/>
  <text x="375" y="75" fill="#e8e4df" font-size="11" text-anchor="middle">SorterByAddress</text>
  <text x="470" y="64" fill="rgb(138,133,128)" font-size="10">정렬 바꾸면 출력 객체도</text>
  <text x="470" y="80" fill="rgb(138,133,128)" font-size="10">함께 고쳐야 함</text>

  <line x1="24" y1="128" x2="696" y2="128" stroke="rgb(42,37,32)" stroke-width="1"/>

  <text x="24" y="160" fill="#66bb6a" font-size="13" font-weight="bold">인터페이스 디커플링 — 계약에 의존</text>
  <rect x="40" y="176" width="150" height="44" fill="rgba(102,187,106,0.10)" stroke="#66bb6a" stroke-width="1.5"/>
  <text x="115" y="203" fill="#e8e4df" font-size="11" text-anchor="middle">DeliveryDetailsPrinter</text>
  <line x1="190" y1="198" x2="300" y2="198" stroke="#66bb6a" stroke-width="1.5" marker-end="url(#arG)"/>
  <text x="245" y="190" fill="rgb(138,133,128)" font-size="10" text-anchor="middle">Uses</text>
  <rect x="300" y="176" width="150" height="44" rx="6" fill="rgba(212,168,83,0.12)" stroke="rgb(212,168,83)" stroke-width="1.5"/>
  <text x="375" y="198" fill="rgb(212,168,83)" font-size="11" text-anchor="middle">Sorter</text>
  <text x="375" y="214" fill="rgb(138,133,128)" font-size="9" text-anchor="middle">«interface»</text>

  <rect x="270" y="256" width="130" height="40" fill="#0d0d0d" stroke="rgb(138,133,128)" stroke-width="1.2"/>
  <text x="335" y="281" fill="#e8e4df" font-size="10" text-anchor="middle">SorterByAddress</text>
  <rect x="420" y="256" width="130" height="40" fill="#0d0d0d" stroke="rgb(138,133,128)" stroke-width="1.2"/>
  <text x="485" y="281" fill="#e8e4df" font-size="10" text-anchor="middle">SorterByName</text>
  <line x1="335" y1="256" x2="360" y2="222" stroke="rgb(138,133,128)" stroke-width="1" stroke-dasharray="4 3" marker-end="url(#arGr)"/>
  <line x1="485" y1="256" x2="395" y2="222" stroke="rgb(138,133,128)" stroke-width="1" stroke-dasharray="4 3" marker-end="url(#arGr)"/>
  <text x="470" y="200" fill="rgb(138,133,128)" font-size="10">구현 교체에 출력 객체 불변</text>

  <defs>
    <marker id="arC" markerWidth="8" markerHeight="8" refX="6" refY="3" orient="auto"><path d="M0,0 L6,3 L0,6 Z" fill="#f44336"/></marker>
    <marker id="arG" markerWidth="8" markerHeight="8" refX="6" refY="3" orient="auto"><path d="M0,0 L6,3 L0,6 Z" fill="#66bb6a"/></marker>
    <marker id="arGr" markerWidth="8" markerHeight="8" refX="6" refY="3" orient="auto"><path d="M0,0 L6,3 L0,6 Z" fill="rgb(138,133,128)"/></marker>
  </defs>
</svg>
