<svg xmlns="http://www.w3.org/2000/svg" viewBox="0 0 720 300" font-family="'Pretendard', -apple-system, 'Noto Sans KR', sans-serif" role="img" aria-label="aspect weaving 프록시 동작">
  <rect x="0" y="0" width="720" height="300" fill="#0d0d0d"/>

  <text x="24" y="32" fill="rgb(138,133,128)" font-size="13" font-weight="bold">Without aspect — 직접 호출</text>
  <text x="40" y="62" fill="#e8e4df" font-size="11">caller</text>
  <line x1="90" y1="58" x2="240" y2="58" stroke="rgb(138,133,128)" stroke-width="1.5" marker-end="url(#ar6)"/>
  <text x="120" y="50" fill="rgb(138,133,128)" font-size="10">publishComment</text>
  <rect x="240" y="40" width="160" height="40" fill="#0d0d0d" stroke="rgb(138,133,128)" stroke-width="1.2"/>
  <text x="320" y="65" fill="#e8e4df" font-size="11" text-anchor="middle">CommentService</text>

  <line x1="24" y1="108" x2="696" y2="108" stroke="rgb(42,37,32)" stroke-width="1"/>

  <text x="24" y="140" fill="rgb(212,168,83)" font-size="13" font-weight="bold">With aspect — 프록시 경유</text>
  <text x="40" y="178" fill="#e8e4df" font-size="11">caller</text>
  <line x1="90" y1="174" x2="210" y2="174" stroke="rgb(212,168,83)" stroke-width="1.5" marker-end="url(#ar6g)"/>
  <text x="110" y="166" fill="rgb(212,168,83)" font-size="10">publishComment</text>
  <rect x="210" y="150" width="200" height="80" rx="6" fill="rgba(212,168,83,0.12)" stroke="rgb(212,168,83)" stroke-width="2"/>
  <text x="310" y="178" fill="rgb(212,168,83)" font-size="12" font-weight="bold" text-anchor="middle">Proxy</text>
  <text x="310" y="200" fill="#e8e4df" font-size="10" text-anchor="middle">aspect 로직 실행</text>
  <text x="310" y="216" fill="rgb(138,133,128)" font-size="10" text-anchor="middle">후 위임</text>
  <line x1="410" y1="190" x2="510" y2="190" stroke="rgb(212,168,83)" stroke-width="1.5" marker-end="url(#ar6g)"/>
  <text x="430" y="182" fill="rgb(138,133,128)" font-size="10">Delegates</text>
  <rect x="510" y="170" width="160" height="40" fill="#0d0d0d" stroke="rgb(138,133,128)" stroke-width="1.2"/>
  <text x="590" y="195" fill="#e8e4df" font-size="11" text-anchor="middle">CommentService</text>
  <text x="40" y="266" fill="rgb(138,133,128)" font-size="11">caller는 프록시를 받지만, 실제 메서드를 부른다고 여깁니다(type에 EnhancerBySpringCGLIB 표시)</text>

  <defs>
    <marker id="ar6" markerWidth="8" markerHeight="8" refX="6" refY="3" orient="auto"><path d="M0,0 L6,3 L0,6 Z" fill="rgb(138,133,128)"/></marker>
    <marker id="ar6g" markerWidth="8" markerHeight="8" refX="6" refY="3" orient="auto"><path d="M0,0 L6,3 L0,6 Z" fill="rgb(212,168,83)"/></marker>
  </defs>
</svg>
